<?xml version="1.0" encoding="utf-8"?>
<!-- Generator: Adobe Illustrator 16.0.0, SVG Export Plug-In . SVG Version: 6.00 Build 0)  -->
<svg version="1.2" baseProfile="tiny" id="Layer_1" xmlns="http://www.w3.org/2000/svg" xmlns:xlink="http://www.w3.org/1999/xlink"
	 x="0px" y="0px" width="602.643px" height="80px" viewBox="0 0 602.643 80" xml:space="preserve">
<text transform="matrix(1 0 0 1 18.7275 48.3218)" font-family="'AGaramondPro-Bold'" font-size="58.3333">s</text>
<text transform="matrix(1 0 0 1 39.9019 48.3218)" font-family="'AGaramondPro-Bold'" font-size="58.3333">t</text>
<text transform="matrix(1 0 0 1 59.0352 48.3218)" font-family="'AGaramondPro-Bold'" font-size="58.3333">u</text>
<text transform="matrix(1 0 0 1 91.0596 48.3218)" font-family="'AGaramondPro-Bold'" font-size="58.3333">d</text>
<text transform="matrix(1 0 0 1 122.6753 48.3218)" font-family="'AGaramondPro-Bold'" font-size="58.3333">i</text>
<text transform="matrix(1 0 0 1 139.6499 48.3218)" font-family="'AGaramondPro-Bold'" font-size="58.3333">o</text>
<text transform="matrix(1 0 0 1 170.041 48.3218)" font-family="'AGaramondPro-Bold'" font-size="58.3333"> </text>
<text transform="matrix(1 0 0 1 184.3325 48.3218)" fill="#810303" font-family="'AGaramondPro-Bold'" font-size="58.3333">C</text>
<text transform="matrix(1 0 0 1 224.8154 48.3218)" fill="#810303" font-family="'AGaramondPro-Bold'" font-size="58.3333">H</text>
<text transform="matrix(1 0 0 1 272.1235 48.3218)" fill="#810303" font-family="'AGaramondPro-Bold'" font-size="58.3333">I</text>
<text transform="matrix(1 0 0 1 294.0562 48.3218)" fill="#810303" font-family="'AGaramondPro-Bold'" font-size="58.3333">T</text>
<text transform="matrix(1 0 0 1 332.6714 48.3218)" fill="#810303" font-family="'AGaramondPro-Bold'" font-size="58.3333">T</text>
<text transform="matrix(1 0 0 1 366.0962 48.3218)" fill="#810303" font-family="'AGaramondPro-Bold'" font-size="58.3333">A</text>
<text transform="matrix(1 0 0 1 401.3882 48.3218)" fill="#810303" font-family="'AGaramondPro-Bold'" font-size="58.3333">G</text>
<text transform="matrix(1 0 0 1 444.4966 48.3218)" fill="#810303" font-family="'AGaramondPro-Bold'" font-size="58.3333">O</text>
<text transform="matrix(1 0 0 1 490.7544 48.3218)" fill="#810303" font-family="'AGaramondPro-Bold'" font-size="58.3333">N</text>
<text transform="matrix(1 0 0 1 534.6782 48.3218)" fill="#810303" font-family="'AGaramondPro-Bold'" font-size="58.3333">G</text>
<path fill-rule="evenodd" fill="#810303" d="M251.975,67.602v-6.035h350.668v6.035H251.975z"/>
</svg>
